STARTFONT 2.1
FONT -Bitstream-Charter-Medium-I-Normal--19-180-75-75-P-103-ISO8859-15
SIZE 18 75 75
FONTBOUNDINGBOX 21 23 -3 -4

STARTPROPERTIES 25
FONTNAME_REGISTRY ""
FAMILY_NAME "Charter"
FOUNDRY "Bitstream"
WEIGHT_NAME "Medium"
SETWIDTH_NAME "Normal"
SLANT "I"
ADD_STYLE_NAME ""
PIXEL_SIZE 19
POINT_SIZE 180
RESOLUTION_X 75
RESOLUTION_Y 75
SPACING "P"
AVERAGE_WIDTH 103
CHARSET_REGISTRY "ISO8859"
CHARSET_ENCODING "15"
CAP_HEIGHT 13
X_HEIGHT 8
CHARSET_COLLECTIONS "ASCII ISOLATIN1"
FACE_NAME "Bitstream Charter Italic"
COPYRIGHT "Copyright 1987 by Bitstream Inc. Charter Registered trademark of Bitstream Inc."
WEIGHT 10
QUAD_WIDTH 11
DEFAULT_CHAR 0
FONT_DESCENT 4
FONT_ASCENT 19
ENDPROPERTIES

CHARS 191

STARTCHAR space
ENCODING 32
SWIDTH 278 0
DWIDTH 5 0
BBX 1 1 0 0
BITMAP
00
ENDCHAR

STARTCHAR exclam
ENCODING 33
SWIDTH 338 0
DWIDTH 6 0
BBX 4 13 1 0
BITMAP
30
30
30
20
20
60
60
40
40
40
00
C0
C0
ENDCHAR

STARTCHAR quotedbl
ENCODING 34
SWIDTH 331 0
DWIDTH 7 0
BBX 5 5 1 9
BITMAP
D8
D8
D8
48
48
ENDCHAR

STARTCHAR numbersign
ENCODING 35
SWIDTH 745 0
DWIDTH 14 0
BBX 12 14 1 0
BITMAP
0220
0440
0440
0440
7FF0
0880
0880
1100
FFE0
1100
2200
2200
2200
4400
ENDCHAR

STARTCHAR dollar
ENCODING 36
SWIDTH 556 0
DWIDTH 10 0
BBX 9 17 0 -2
BITMAP
0200
0200
0F80
1480
2480
2400
2400
3800
1E00
0F00
0B00
4900
8B00
D600
7C00
1000
1000
ENDCHAR

STARTCHAR percent
ENCODING 37
SWIDTH 852 0
DWIDTH 16 0
BBX 15 13 1 0
BITMAP
3804
6408
4410
8420
8440
8C9C
8922
7222
0442
0842
1046
204C
6038
ENDCHAR

STARTCHAR ampersand
ENCODING 38
SWIDTH 704 0
DWIDTH 13 0
BBX 12 13 0 0
BITMAP
0700
1980
3080
3180
3100
1E00
3CF0
6420
C640
C380
C180
E2C0
7CE0
ENDCHAR

STARTCHAR quoteright
ENCODING 39
SWIDTH 201 0
DWIDTH 4 0
BBX 3 5 1 9
BITMAP
60
60
20
40
C0
ENDCHAR

STARTCHAR parenleft
ENCODING 40
SWIDTH 419 0
DWIDTH 8 0
BBX 8 16 1 -2
BITMAP
03
0C
18
30
30
60
60
60
C0
C0
C0
C0
C0
60
20
18
ENDCHAR

STARTCHAR parenright
ENCODING 41
SWIDTH 419 0
DWIDTH 8 0
BBX 7 16 -1 -2
BITMAP
10
08
04
06
06
06
06
06
04
0C
0C
08
18
10
20
C0
ENDCHAR

STARTCHAR asterisk
ENCODING 42
SWIDTH 500 0
DWIDTH 9 0
BBX 7 7 2 7
BITMAP
10
10
56
EC
30
48
48
ENDCHAR

STARTCHAR plus
ENCODING 43
SWIDTH 833 0
DWIDTH 16 0
BBX 11 11 3 0
BITMAP
0400
0400
0400
0400
0400
FFE0
0400
0400
0400
0400
0400
ENDCHAR

STARTCHAR comma
ENCODING 44
SWIDTH 278 0
DWIDTH 5 0
BBX 3 5 -1 -3
BITMAP
60
60
20
40
80
ENDCHAR

STARTCHAR hyphen
ENCODING 45
SWIDTH 319 0
DWIDTH 6 0
BBX 4 1 1 5
BITMAP
F0
ENDCHAR

STARTCHAR period
ENCODING 46
SWIDTH 278 0
DWIDTH 5 0
BBX 2 2 0 0
BITMAP
C0
C0
ENDCHAR

STARTCHAR slash
ENCODING 47
SWIDTH 481 0
DWIDTH 9 0
BBX 12 14 -2 -1
BITMAP
0030
0020
0040
0080
0180
0100
0200
0400
0800
0800
1000
2000
4000
C000
ENDCHAR

STARTCHAR zero
ENCODING 48
SWIDTH 556 0
DWIDTH 10 0
BBX 9 13 1 0
BITMAP
0E00
1300
2180
6180
6180
4180
C180
C100
C300
C300
C200
6400
3800
ENDCHAR

STARTCHAR one
ENCODING 49
SWIDTH 556 0
DWIDTH 10 0
BBX 6 13 1 0
BITMAP
1C
7C
0C
08
08
08
18
18
10
10
10
30
FC
ENDCHAR

STARTCHAR two
ENCODING 50
SWIDTH 556 0
DWIDTH 10 0
BBX 10 13 -1 0
BITMAP
0F80
11C0
30C0
30C0
00C0
0180
0180
0200
0400
0800
3080
6080
FF80
ENDCHAR

STARTCHAR three
ENCODING 51
SWIDTH 556 0
DWIDTH 10 0
BBX 9 13 0 0
BITMAP
0F00
3380
2180
2180
0100
0600
1C00
0300
0300
0300
C300
C600
7800
ENDCHAR

STARTCHAR four
ENCODING 52
SWIDTH 556 0
DWIDTH 10 0
BBX 9 14 0 -1
BITMAP
0180
0380
0700
0D00
0900
1300
2300
4300
FF80
0200
0200
0600
0600
0400
ENDCHAR

STARTCHAR five
ENCODING 53
SWIDTH 556 0
DWIDTH 10 0
BBX 9 13 0 0
BITMAP
1F80
2000
2000
2000
2000
3C00
0600
0300
0300
0300
8600
CC00
7000
ENDCHAR

STARTCHAR six
ENCODING 54
SWIDTH 556 0
DWIDTH 10 0
BBX 9 14 0 0
BITMAP
0380
0C00
1800
3000
2000
7E00
6380
C180
C180
C180
C180
C300
6600
3C00
ENDCHAR

STARTCHAR seven
ENCODING 55
SWIDTH 556 0
DWIDTH 10 0
BBX 10 14 1 -1
BITMAP
7FC0
4080
4180
0300
0200
0600
0400
0800
1800
1000
2000
6000
4000
8000
ENDCHAR

STARTCHAR eight
ENCODING 56
SWIDTH 556 0
DWIDTH 10 0
BBX 9 13 0 0
BITMAP
0F00
1980
3080
3080
3080
1900
1E00
2300
4180
C180
C100
6300
3C00
ENDCHAR

STARTCHAR nine
ENCODING 57
SWIDTH 556 0
DWIDTH 10 0
BBX 9 13 1 0
BITMAP
1E00
3300
6180
C180
C180
C180
6300
3F00
0600
0C00
1800
3000
C000
ENDCHAR

STARTCHAR colon
ENCODING 58
SWIDTH 319 0
DWIDTH 6 0
BBX 4 8 1 0
BITMAP
70
30
00
00
00
00
E0
C0
ENDCHAR

STARTCHAR semicolon
ENCODING 59
SWIDTH 319 0
DWIDTH 6 0
BBX 5 11 -1 -3
BITMAP
18
18
00
00
00
00
30
70
10
20
C0
ENDCHAR

STARTCHAR less
ENCODING 60
SWIDTH 833 0
DWIDTH 16 0
BBX 11 10 2 1
BITMAP
0020
01C0
0700
3800
E000
E000
3800
0700
01C0
0020
ENDCHAR

STARTCHAR equal
ENCODING 61
SWIDTH 833 0
DWIDTH 16 0
BBX 11 5 3 4
BITMAP
FFE0
0000
0000
0000
FFE0
ENDCHAR

STARTCHAR greater
ENCODING 62
SWIDTH 833 0
DWIDTH 16 0
BBX 11 10 3 1
BITMAP
8000
7000
1C00
0380
00E0
00E0
0380
1C00
7000
8000
ENDCHAR

STARTCHAR question
ENCODING 63
SWIDTH 486 0
DWIDTH 9 0
BBX 7 13 1 0
BITMAP
78
CE
C6
06
06
0C
18
60
40
40
00
C0
C0
ENDCHAR

STARTCHAR at
ENCODING 64
SWIDTH 942 0
DWIDTH 18 0
BBX 15 16 2 -2
BITMAP
03E0
0C18
1004
6004
41D2
4332
8622
8C22
8C22
8C64
8CE8
C770
6000
3000
1C18
07E0
ENDCHAR

STARTCHAR A
ENCODING 65
SWIDTH 606 0
DWIDTH 11 0
BBX 13 13 -2 0
BITMAP
00C0
01C0
01C0
0240
0240
0460
0860
0FE0
1060
1020
2020
6030
F078
ENDCHAR

STARTCHAR B
ENCODING 66
SWIDTH 588 0
DWIDTH 11 0
BBX 11 13 -1 0
BITMAP
3FC0
08E0
1860
1860
1840
1180
1F80
30C0
3060
3060
20C0
2180
FF00
ENDCHAR

STARTCHAR C
ENCODING 67
SWIDTH 604 0
DWIDTH 12 0
BBX 11 13 1 0
BITMAP
07C0
1C20
3020
2020
6000
C000
C000
C000
C000
C080
6080
3080
1F00
ENDCHAR

STARTCHAR D
ENCODING 68
SWIDTH 671 0
DWIDTH 12 0
BBX 12 13 -1 0
BITMAP
3F80
18C0
1860
1830
1030
1030
3030
3030
3060
2060
20C0
6300
FE00
ENDCHAR

STARTCHAR E
ENCODING 69
SWIDTH 546 0
DWIDTH 10 0
BBX 11 13 0 0
BITMAP
3FE0
0820
1820
1800
1880
1080
1F00
3100
3100
3000
2040
20C0
FF80
ENDCHAR

STARTCHAR F
ENCODING 70
SWIDTH 509 0
DWIDTH 10 0
BBX 11 13 -1 0
BITMAP
3FE0
0860
1860
1800
1880
1080
1F00
3100
3100
3000
2000
2000
F800
ENDCHAR

STARTCHAR G
ENCODING 71
SWIDTH 664 0
DWIDTH 12 0
BBX 11 13 1 0
BITMAP
07E0
0C60
1060
3040
6000
6000
C000
C1E0
C0C0
C080
6080
3180
1F00
ENDCHAR

STARTCHAR H
ENCODING 72
SWIDTH 712 0
DWIDTH 13 0
BBX 14 13 -1 0
BITMAP
3C3C
1818
1810
1810
1030
1030
3FF0
3020
3020
3060
2060
2060
F0F0
ENDCHAR

STARTCHAR I
ENCODING 73
SWIDTH 313 0
DWIDTH 6 0
BBX 7 13 0 0
BITMAP
3E
08
18
18
18
18
10
30
30
30
30
20
F8
ENDCHAR

STARTCHAR J
ENCODING 74
SWIDTH 447 0
DWIDTH 9 0
BBX 10 13 -1 0
BITMAP
07C0
0100
0100
0300
0300
0300
0200
0200
0600
4600
C400
CC00
F800
ENDCHAR

STARTCHAR K
ENCODING 75
SWIDTH 625 0
DWIDTH 12 0
BBX 13 13 -1 0
BITMAP
3EF8
0820
1840
1880
1900
1200
1E00
3600
3300
3300
2180
2080
F8E0
ENDCHAR

STARTCHAR L
ENCODING 76
SWIDTH 498 0
DWIDTH 9 0
BBX 9 13 -1 0
BITMAP
3E00
1800
1800
1800
1800
1000
1000
3000
3000
3080
2080
2180
FF00
ENDCHAR

STARTCHAR M
ENCODING 77
SWIDTH 839 0
DWIDTH 16 0
BBX 17 13 -1 0
BITMAP
3C0780
0C0600
140A00
160A00
161600
163600
162600
226400
224400
238C00
238C00
230C00
F13E00
ENDCHAR

STARTCHAR N
ENCODING 78
SWIDTH 683 0
DWIDTH 13 0
BBX 14 13 -1 0
BITMAP
383C
1C18
1C10
1610
1610
1310
1330
21A0
21A0
20A0
20E0
2060
F040
ENDCHAR

STARTCHAR O
ENCODING 79
SWIDTH 708 0
DWIDTH 13 0
BBX 11 13 1 0
BITMAP
0700
1880
30C0
6060
6060
C060
C060
C060
C0C0
C0C0
6180
2300
1E00
ENDCHAR

STARTCHAR P
ENCODING 80
SWIDTH 542 0
DWIDTH 10 0
BBX 11 13 -1 0
BITMAP
3F80
08C0
1860
1860
1860
10C0
1180
3F00
3000
3000
2000
2000
F000
ENDCHAR

STARTCHAR Q
ENCODING 81
SWIDTH 708 0
DWIDTH 13 0
BBX 12 16 1 -3
BITMAP
0700
1880
30C0
6060
6060
C060
C060
C060
C0C0
C0C0
6180
2300
1E00
0300
0310
01E0
ENDCHAR

STARTCHAR R
ENCODING 82
SWIDTH 602 0
DWIDTH 11 0
BBX 12 13 -1 0
BITMAP
3F80
08E0
1860
1860
1840
1180
1E00
3100
3180
3080
20C0
20C0
F870
ENDCHAR

STARTCHAR S
ENCODING 83
SWIDTH 537 0
DWIDTH 10 0
BBX 10 13 0 0
BITMAP
0780
18C0
1080
3000
3000
1800
0E00
0300
0180
4180
4180
C300
7C00
ENDCHAR

STARTCHAR T
ENCODING 84
SWIDTH 565 0
DWIDTH 10 0
BBX 10 13 1 0
BITMAP
FFC0
8C40
8C40
0800
0800
0800
1800
1800
1800
1000
1000
3000
7800
ENDCHAR

STARTCHAR U
ENCODING 85
SWIDTH 664 0
DWIDTH 12 0
BBX 12 13 1 0
BITMAP
F8F0
2020
2040
6040
6040
6040
6040
C080
C080
C080
C080
E300
3E00
ENDCHAR

STARTCHAR V
ENCODING 86
SWIDTH 590 0
DWIDTH 11 0
BBX 11 13 1 0
BITMAP
F0E0
6040
6080
6080
2100
2100
2200
2200
3400
3400
3800
1800
1000
ENDCHAR

STARTCHAR W
ENCODING 87
SWIDTH 898 0
DWIDTH 17 0
BBX 17 13 1 0
BITMAP
F08780
60C100
61C200
61C200
62C400
22C400
244800
244800
285000
285000
387000
306000
306000
ENDCHAR

STARTCHAR X
ENCODING 88
SWIDTH 569 0
DWIDTH 10 0
BBX 13 13 -2 0
BITMAP
1E78
0820
0C60
0440
0680
0300
0300
0500
0D80
1980
3080
20C0
F1E0
ENDCHAR

STARTCHAR Y
ENCODING 89
SWIDTH 563 0
DWIDTH 11 0
BBX 11 13 1 0
BITMAP
F1E0
6080
2080
3100
3200
1400
1C00
1800
1800
1800
1000
1000
7C00
ENDCHAR

STARTCHAR Z
ENCODING 90
SWIDTH 556 0
DWIDTH 10 0
BBX 11 13 0 0
BITMAP
1FE0
10C0
20C0
0180
0300
0600
0400
0C00
1800
3080
6080
6080
FF80
ENDCHAR

STARTCHAR bracketleft
ENCODING 91
SWIDTH 421 0
DWIDTH 8 0
BBX 7 16 1 -2
BITMAP
1E
10
30
30
20
20
20
20
60
60
40
40
40
C0
C0
F0
ENDCHAR

STARTCHAR backslash
ENCODING 92
SWIDTH 481 0
DWIDTH 9 0
BBX 8 14 1 -1
BITMAP
80
40
40
20
20
10
10
08
08
04
04
02
02
01
ENDCHAR

STARTCHAR bracketright
ENCODING 93
SWIDTH 421 0
DWIDTH 8 0
BBX 8 16 -1 -2
BITMAP
1F
03
03
02
02
06
06
04
04
04
0C
0C
08
08
18
F8
ENDCHAR

STARTCHAR asciicircum
ENCODING 94
SWIDTH 1000 0
DWIDTH 19 0
BBX 11 5 4 9
BITMAP
0E00
1B00
3180
60C0
8020
ENDCHAR

STARTCHAR underscore
ENCODING 95
SWIDTH 500 0
DWIDTH 9 0
BBX 9 1 0 -4
BITMAP
FF80
ENDCHAR

STARTCHAR quoteleft
ENCODING 96
SWIDTH 201 0
DWIDTH 4 0
BBX 4 5 1 9
BITMAP
30
40
C0
E0
E0
ENDCHAR

STARTCHAR a
ENCODING 97
SWIDTH 525 0
DWIDTH 10 0
BBX 9 8 0 0
BITMAP
0F80
3180
6100
C100
C300
C300
E600
7B80
ENDCHAR

STARTCHAR b
ENCODING 98
SWIDTH 507 0
DWIDTH 9 0
BBX 8 14 0 0
BITMAP
E0
20
60
60
60
60
5E
63
43
C3
82
86
8C
70
ENDCHAR

STARTCHAR c
ENCODING 99
SWIDTH 394 0
DWIDTH 7 0
BBX 6 8 0 0
BITMAP
1C
2C
40
C0
C0
C0
CC
30
ENDCHAR

STARTCHAR d
ENCODING 100
SWIDTH 523 0
DWIDTH 10 0
BBX 9 14 0 0
BITMAP
0380
0080
0080
0080
0100
0100
0F00
3100
6100
C100
C300
C300
C600
7B80
ENDCHAR

STARTCHAR e
ENCODING 101
SWIDTH 424 0
DWIDTH 8 0
BBX 7 8 0 0
BITMAP
1C
26
66
48
F0
C0
C6
38
ENDCHAR

STARTCHAR f
ENCODING 102
SWIDTH 292 0
DWIDTH 5 0
BBX 10 18 -3 -4
BITMAP
01C0
02C0
0200
0600
0400
0400
1F80
0C00
0C00
0C00
0800
0800
0800
1800
1000
1000
A000
C000
ENDCHAR

STARTCHAR g
ENCODING 103
SWIDTH 481 0
DWIDTH 10 0
BBX 10 12 0 -4
BITMAP
0C00
33C0
6300
6600
1800
1000
3800
4E00
8300
8300
C600
7800
ENDCHAR

STARTCHAR h
ENCODING 104
SWIDTH 551 0
DWIDTH 10 0
BBX 9 14 0 0
BITMAP
7000
1000
1000
3000
3000
3000
2700
3B00
6300
6300
6200
4200
4600
C380
ENDCHAR

STARTCHAR i
ENCODING 105
SWIDTH 287 0
DWIDTH 5 0
BBX 4 14 1 0
BITMAP
30
30
30
00
00
00
E0
60
60
40
C0
C0
C0
F0
ENDCHAR

STARTCHAR j
ENCODING 106
SWIDTH 269 0
DWIDTH 5 0
BBX 7 18 -2 -4
BITMAP
06
06
06
00
00
00
1C
04
04
0C
0C
08
08
08
18
10
10
E0
ENDCHAR

STARTCHAR k
ENCODING 107
SWIDTH 514 0
DWIDTH 10 0
BBX 9 14 0 0
BITMAP
7800
1000
1000
1000
3000
3000
2180
2680
2800
7800
6C00
4400
4600
C380
ENDCHAR

STARTCHAR l
ENCODING 108
SWIDTH 275 0
DWIDTH 5 0
BBX 4 14 0 0
BITMAP
F0
30
30
20
20
60
60
40
40
40
C0
C0
C0
F0
ENDCHAR

STARTCHAR m
ENCODING 109
SWIDTH 815 0
DWIDTH 15 0
BBX 14 8 1 0
BITMAP
EF78
3398
6318
6318
4310
4210
C230
C63C
ENDCHAR

STARTCHAR n
ENCODING 110
SWIDTH 556 0
DWIDTH 10 0
BBX 9 8 1 0
BITMAP
EF00
7300
6300
4300
4200
4200
C600
C780
ENDCHAR

STARTCHAR o
ENCODING 111
SWIDTH 502 0
DWIDTH 9 0
BBX 8 8 0 0
BITMAP
1C
26
63
C3
C3
C6
44
38
ENDCHAR

STARTCHAR p
ENCODING 112
SWIDTH 516 0
DWIDTH 10 0
BBX 10 12 -1 -4
BITMAP
3780
18C0
10C0
30C0
20C0
2180
2300
3C00
2000
6000
4000
F000
ENDCHAR

STARTCHAR q
ENCODING 113
SWIDTH 512 0
DWIDTH 10 0
BBX 9 12 0 -4
BITMAP
0E80
3180
6100
C100
C300
C300
C700
7A00
0200
0600
0600
0F80
ENDCHAR

STARTCHAR r
ENCODING 114
SWIDTH 398 0
DWIDTH 7 0
BBX 7 8 0 0
BITMAP
EE
36
60
60
40
40
C0
C0
ENDCHAR

STARTCHAR s
ENCODING 115
SWIDTH 370 0
DWIDTH 7 0
BBX 6 8 0 0
BITMAP
1C
24
60
30
18
CC
88
70
ENDCHAR

STARTCHAR t
ENCODING 116
SWIDTH 333 0
DWIDTH 6 0
BBX 5 11 1 0
BITMAP
20
20
60
F8
40
40
40
C0
80
C0
F0
ENDCHAR

STARTCHAR u
ENCODING 117
SWIDTH 553 0
DWIDTH 10 0
BBX 8 8 1 0
BITMAP
E3
63
42
42
C6
C6
CE
F7
ENDCHAR

STARTCHAR v
ENCODING 118
SWIDTH 454 0
DWIDTH 9 0
BBX 9 8 0 0
BITMAP
E180
3180
3100
3100
3200
1400
1800
3000
ENDCHAR

STARTCHAR w
ENCODING 119
SWIDTH 713 0
DWIDTH 13 0
BBX 13 8 0 0
BITMAP
E118
6318
6310
2510
2920
2940
3180
2180
ENDCHAR

STARTCHAR x
ENCODING 120
SWIDTH 477 0
DWIDTH 9 0
BBX 10 8 -1 0
BITMAP
78C0
1940
0A00
0C00
0C00
1400
A600
C380
ENDCHAR

STARTCHAR y
ENCODING 121
SWIDTH 475 0
DWIDTH 9 0
BBX 11 12 -2 -4
BITMAP
3860
0840
0880
0C80
0D00
0500
0600
0600
0400
0800
D000
E000
ENDCHAR

STARTCHAR z
ENCODING 122
SWIDTH 440 0
DWIDTH 8 0
BBX 9 8 -1 0
BITMAP
3F80
4100
6600
0C00
1800
3300
6900
FE00
ENDCHAR

STARTCHAR braceleft
ENCODING 123
SWIDTH 486 0
DWIDTH 9 0
BBX 7 16 1 -2
BITMAP
0E
18
10
10
10
10
30
C0
30
10
10
10
10
10
18
0E
ENDCHAR

STARTCHAR bar
ENCODING 124
SWIDTH 500 0
DWIDTH 9 0
BBX 1 19 4 -4
BITMAP
80
80
80
80
80
80
80
80
80
80
80
80
80
80
80
80
80
80
80
ENDCHAR

STARTCHAR braceright
ENCODING 125
SWIDTH 486 0
DWIDTH 9 0
BBX 7 16 1 -2
BITMAP
E0
30
10
10
10
10
18
06
18
10
10
10
10
10
30
E0
ENDCHAR

STARTCHAR c0126
ENCODING 126
SWIDTH 1000 0
DWIDTH 19 0
BBX 11 2 4 11
BITMAP
3C60
C780
ENDCHAR

STARTCHAR space
ENCODING 160
SWIDTH 278 0
DWIDTH 5 0
BBX 1 1 0 0
BITMAP
00
ENDCHAR

STARTCHAR exclamdown
ENCODING 161
SWIDTH 338 0
DWIDTH 6 0
BBX 4 13 1 0
BITMAP
30
30
00
20
20
20
60
60
40
40
C0
C0
C0
ENDCHAR

STARTCHAR cent
ENCODING 162
SWIDTH 556 0
DWIDTH 10 0
BBX 8 14 1 -2
BITMAP
04
04
0F
35
29
68
C8
C8
C8
CA
72
3E
10
10
ENDCHAR

STARTCHAR sterling
ENCODING 163
SWIDTH 556 0
DWIDTH 10 0
BBX 11 13 -1 0
BITMAP
01C0
0260
0440
0C00
0C00
0C00
0800
3F80
1800
1800
1000
2000
FF80
ENDCHAR

STARTCHAR EuroSign
ENCODING 164
SWIDTH 500 0
DWIDTH 9 0
BBX 10 12 0 0
BITMAP
07C0
0840
1040
2000
FF00
4000
FE00
4000
4000
4100
4200
3C00
ENDCHAR

STARTCHAR yen
ENCODING 165
SWIDTH 556 0
DWIDTH 10 0
BBX 11 13 0 0
BITMAP
78E0
3040
3080
1100
1100
7BC0
1C00
0C00
FF80
0800
1800
1800
3C00
ENDCHAR

STARTCHAR Scaron
ENCODING 166
SWIDTH 537 0
DWIDTH 10 0
BBX 10 17 0 0
BITMAP
1100
0900
0600
0600
0780
18C0
1080
3000
3000
1800
0E00
0300
0180
4180
4180
C300
7C00
ENDCHAR

STARTCHAR section
ENCODING 167
SWIDTH 500 0
DWIDTH 9 0
BBX 9 16 0 -2
BITMAP
0F80
1080
3100
3000
3C00
1E00
2300
4100
4100
6200
3C00
1E00
0600
8600
8400
7800
ENDCHAR

STARTCHAR scaron
ENCODING 168
SWIDTH 370 0
DWIDTH 7 0
BBX 6 12 0 0
BITMAP
44
24
18
18
1C
24
60
30
18
CC
88
70
ENDCHAR

STARTCHAR copyright
ENCODING 169
SWIDTH 900 0
DWIDTH 17 0
BBX 15 15 1 -1
BITMAP
07C0
1830
2008
43E4
4E24
8C22
9802
9802
9802
8C22
4E24
43E4
2008
1830
07C0
ENDCHAR

STARTCHAR ordfeminine
ENCODING 170
SWIDTH 394 0
DWIDTH 7 0
BBX 6 6 0 6
BITMAP
3C
44
84
88
98
6C
ENDCHAR

STARTCHAR guillemotleft
ENCODING 171
SWIDTH 442 0
DWIDTH 8 0
BBX 7 7 0 2
BITMAP
12
26
48
90
D8
64
24
ENDCHAR

STARTCHAR logicalnot
ENCODING 172
SWIDTH 833 0
DWIDTH 16 0
BBX 11 5 3 4
BITMAP
FFE0
0020
0020
0020
0020
ENDCHAR

STARTCHAR hyphen
ENCODING 173
SWIDTH 319 0
DWIDTH 6 0
BBX 4 1 1 5
BITMAP
F0
ENDCHAR

STARTCHAR registered
ENCODING 174
SWIDTH 900 0
DWIDTH 17 0
BBX 15 15 1 -1
BITMAP
07C0
1830
2008
4FC4
44E4
8462
84C2
8782
84C2
8462
4464
4E3C
2008
1830
07C0
ENDCHAR

STARTCHAR macron
ENCODING 175
SWIDTH 500 0
DWIDTH 9 0
BBX 6 1 2 12
BITMAP
FC
ENDCHAR

STARTCHAR degree
ENCODING 176
SWIDTH 329 0
DWIDTH 6 0
BBX 5 5 1 9
BITMAP
70
88
88
88
70
ENDCHAR

STARTCHAR plusminus
ENCODING 177
SWIDTH 833 0
DWIDTH 16 0
BBX 11 10 3 1
BITMAP
0400
0400
0400
FFE0
0400
0400
0400
0000
0000
FFE0
ENDCHAR

STARTCHAR twosuperior
ENCODING 178
SWIDTH 367 0
DWIDTH 7 0
BBX 6 8 0 5
BITMAP
38
44
44
04
18
20
44
F8
ENDCHAR

STARTCHAR threesuperior
ENCODING 179
SWIDTH 367 0
DWIDTH 7 0
BBX 6 8 0 5
BITMAP
38
44
0C
30
08
0C
88
70
ENDCHAR

STARTCHAR Zcaron
ENCODING 180
SWIDTH 556 0
DWIDTH 10 0
BBX 11 17 0 0
BITMAP
0880
0480
0300
0300
1FE0
10C0
20C0
0180
0300
0600
0400
0C00
1800
3080
6080
6080
FF80
ENDCHAR

STARTCHAR mu
ENCODING 181
SWIDTH 548 0
DWIDTH 10 0
BBX 11 11 -1 -3
BITMAP
3080
3180
2180
2100
2100
6320
6340
5DC0
4000
C000
8000
ENDCHAR

STARTCHAR paragraph
ENCODING 182
SWIDTH 484 0
DWIDTH 9 0
BBX 9 14 0 -1
BITMAP
1F80
7D00
FD00
FD00
FD00
7D00
3D00
0100
0100
0100
0100
0100
0100
0100
ENDCHAR

STARTCHAR periodcentered
ENCODING 183
SWIDTH 278 0
DWIDTH 5 0
BBX 2 2 2 6
BITMAP
C0
C0
ENDCHAR

STARTCHAR zcaron
ENCODING 184
SWIDTH 440 0
DWIDTH 8 0
BBX 9 12 -1 0
BITMAP
1100
0900
0600
0600
3F80
4100
6600
0C00
1800
3300
6900
FE00
ENDCHAR

STARTCHAR onesuperior
ENCODING 185
SWIDTH 367 0
DWIDTH 7 0
BBX 4 8 1 5
BITMAP
30
70
10
20
20
20
20
F0
ENDCHAR

STARTCHAR ordmasculine
ENCODING 186
SWIDTH 377 0
DWIDTH 7 0
BBX 6 6 0 6
BITMAP
38
44
84
84
88
70
ENDCHAR

STARTCHAR guillemotright
ENCODING 187
SWIDTH 442 0
DWIDTH 8 0
BBX 7 7 0 2
BITMAP
48
4C
36
12
26
C8
90
ENDCHAR

STARTCHAR Ligature_OE
ENCODING 188
SWIDTH 944 0
DWIDTH 17 0
BBX 16 12 1 0
BITMAP
07FF
1822
3022
2028
4048
C078
8050
8090
8080
8084
4188
3FF8
ENDCHAR

STARTCHAR Ligature_oe
ENCODING 189
SWIDTH 666 0
DWIDTH 12 0
BBX 12 8 0 0
BITMAP
1CF0
2310
4210
C260
8780
8600
8A20
71C0
ENDCHAR

STARTCHAR Ydiaeresis
ENCODING 190
SWIDTH 563 0
DWIDTH 11 0
BBX 11 17 1 0
BITMAP
0D80
0D80
0000
0000
F1E0
6080
2080
3100
3200
1400
1C00
1800
1800
1800
1000
1000
7C00
ENDCHAR

STARTCHAR questiondown
ENCODING 191
SWIDTH 486 0
DWIDTH 9 0
BBX 6 13 1 0
BITMAP
0C
0C
00
08
08
18
20
40
C0
C0
CC
CC
78
ENDCHAR

STARTCHAR Agrave
ENCODING 192
SWIDTH 606 0
DWIDTH 11 0
BBX 13 17 -2 0
BITMAP
0180
0080
00C0
0040
00C0
01C0
01C0
0240
0240
0460
0860
0FE0
1060
1020
2020
6030
F078
ENDCHAR

STARTCHAR Aacute
ENCODING 193
SWIDTH 606 0
DWIDTH 11 0
BBX 13 17 -2 0
BITMAP
0018
0030
0020
0040
00C0
01C0
01C0
0240
0240
0460
0860
0FE0
1060
1020
2020
6030
F078
ENDCHAR

STARTCHAR Acircumflex
ENCODING 194
SWIDTH 606 0
DWIDTH 11 0
BBX 13 17 -2 0
BITMAP
0060
0060
0090
0110
00C0
01C0
01C0
0240
0240
0460
0860
0FE0
1060
1020
2020
6030
F078
ENDCHAR

STARTCHAR Atilde
ENCODING 195
SWIDTH 606 0
DWIDTH 11 0
BBX 13 17 -2 0
BITMAP
00C8
01F8
0130
0000
00C0
01C0
01C0
0240
0240
0460
0860
0FE0
1060
1020
2020
6030
F078
ENDCHAR

STARTCHAR Adieresis
ENCODING 196
SWIDTH 606 0
DWIDTH 11 0
BBX 13 17 -2 0
BITMAP
01B0
01B0
0000
0000
00C0
01C0
01C0
0240
0240
0460
0860
0FE0
1060
1020
2020
6030
F078
ENDCHAR

STARTCHAR Aring
ENCODING 197
SWIDTH 606 0
DWIDTH 11 0
BBX 13 19 -2 0
BITMAP
00E0
0120
0110
0120
00E0
0000
00C0
01C0
01C0
0240
0240
0460
0860
0FE0
1060
1020
2020
6030
F078
ENDCHAR

STARTCHAR AE
ENCODING 198
SWIDTH 873 0
DWIDTH 17 0
BBX 19 13 -2 0
BITMAP
007FE0
002820
005820
009800
011880
031080
021F00
07F100
083000
103000
302040
6020C0
F0FF80
ENDCHAR

STARTCHAR Ccedilla
ENCODING 199
SWIDTH 604 0
DWIDTH 12 0
BBX 11 17 1 -4
BITMAP
07C0
1C20
3020
2020
6000
C000
C000
C000
C000
C080
6080
3080
1F00
0400
0600
0200
1C00
ENDCHAR

STARTCHAR Egrave
ENCODING 200
SWIDTH 546 0
DWIDTH 10 0
BBX 11 17 0 0
BITMAP
0C00
0400
0600
0200
3FE0
0820
1820
1800
1880
1080
1F00
3100
3100
3000
2040
20C0
FF80
ENDCHAR

STARTCHAR Eacute
ENCODING 201
SWIDTH 546 0
DWIDTH 10 0
BBX 11 17 0 0
BITMAP
00C0
0180
0100
0200
3FE0
0820
1820
1800
1880
1080
1F00
3100
3100
3000
2040
20C0
FF80
ENDCHAR

STARTCHAR Ecircumflex
ENCODING 202
SWIDTH 546 0
DWIDTH 10 0
BBX 11 17 0 0
BITMAP
0300
0300
0480
0880
3FE0
0820
1820
1800
1880
1080
1F00
3100
3100
3000
2040
20C0
FF80
ENDCHAR

STARTCHAR Edieresis
ENCODING 203
SWIDTH 546 0
DWIDTH 10 0
BBX 11 17 0 0
BITMAP
0D80
0D80
0000
0000
3FE0
0820
1820
1800
1880
1080
1F00
3100
3100
3000
2040
20C0
FF80
ENDCHAR

STARTCHAR Igrave
ENCODING 204
SWIDTH 313 0
DWIDTH 6 0
BBX 7 17 0 0
BITMAP
30
10
18
08
3E
08
18
18
18
18
10
30
30
30
30
20
F8
ENDCHAR

STARTCHAR Iacute
ENCODING 205
SWIDTH 313 0
DWIDTH 6 0
BBX 8 17 0 0
BITMAP
03
06
04
08
3E
08
18
18
18
18
10
30
30
30
30
20
F8
ENDCHAR

STARTCHAR Icircumflex
ENCODING 206
SWIDTH 313 0
DWIDTH 6 0
BBX 7 17 0 0
BITMAP
0C
0C
12
22
3E
08
18
18
18
18
10
30
30
30
30
20
F8
ENDCHAR

STARTCHAR Idieresis
ENCODING 207
SWIDTH 313 0
DWIDTH 6 0
BBX 7 17 0 0
BITMAP
36
36
00
00
3E
08
18
18
18
18
10
30
30
30
30
20
F8
ENDCHAR

STARTCHAR Eth
ENCODING 208
SWIDTH 671 0
DWIDTH 13 0
BBX 12 13 0 0
BITMAP
3F80
18C0
1860
1830
1030
1030
7E30
3030
3060
3060
20C0
2300
FE00
ENDCHAR

STARTCHAR Ntilde
ENCODING 209
SWIDTH 683 0
DWIDTH 13 0
BBX 14 17 -1 0
BITMAP
0190
03F0
0260
0000
383C
1C18
1C10
1610
1610
1310
1330
21A0
21A0
20A0
20E0
2060
F040
ENDCHAR

STARTCHAR Ograve
ENCODING 210
SWIDTH 708 0
DWIDTH 13 0
BBX 11 17 1 0
BITMAP
0600
0200
0300
0100
0700
1880
30C0
6060
6060
C060
C060
C060
C0C0
C0C0
6180
2300
1E00
ENDCHAR

STARTCHAR Oacute
ENCODING 211
SWIDTH 708 0
DWIDTH 13 0
BBX 11 17 1 0
BITMAP
0060
00C0
0080
0100
0700
1880
30C0
6060
6060
C060
C060
C060
C0C0
C0C0
6180
2300
1E00
ENDCHAR

STARTCHAR Ocircumflex
ENCODING 212
SWIDTH 708 0
DWIDTH 13 0
BBX 11 17 1 0
BITMAP
0180
0180
0240
0440
0700
1880
30C0
6060
6060
C060
C060
C060
C0C0
C0C0
6180
2300
1E00
ENDCHAR

STARTCHAR Otilde
ENCODING 213
SWIDTH 708 0
DWIDTH 13 0
BBX 11 17 1 0
BITMAP
0320
07E0
04C0
0000
0700
1880
30C0
6060
6060
C060
C060
C060
C0C0
C0C0
6180
2300
1E00
ENDCHAR

STARTCHAR Odieresis
ENCODING 214
SWIDTH 708 0
DWIDTH 13 0
BBX 11 17 1 0
BITMAP
06C0
06C0
0000
0000
0700
1880
30C0
6060
6060
C060
C060
C060
C0C0
C0C0
6180
2300
1E00
ENDCHAR

STARTCHAR multiply
ENCODING 215
SWIDTH 833 0
DWIDTH 16 0
BBX 10 10 3 1
BITMAP
8040
4080
2100
1200
0C00
0C00
1200
2100
4080
8040
ENDCHAR

STARTCHAR Oslash
ENCODING 216
SWIDTH 708 0
DWIDTH 13 0
BBX 11 16 1 -1
BITMAP
0000
0040
0780
1880
3140
2260
6260
C460
C460
C860
C8C0
D0C0
7180
2300
5E00
4000
ENDCHAR

STARTCHAR Ugrave
ENCODING 217
SWIDTH 664 0
DWIDTH 12 0
BBX 12 17 1 0
BITMAP
0C00
0400
0600
0200
F8F0
2020
2040
6040
6040
6040
6040
C080
C080
C080
C080
E300
3E00
ENDCHAR

STARTCHAR Uacute
ENCODING 218
SWIDTH 664 0
DWIDTH 12 0
BBX 12 17 1 0
BITMAP
00C0
0180
0100
0200
F8F0
2020
2040
6040
6040
6040
6040
C080
C080
C080
C080
E300
3E00
ENDCHAR

STARTCHAR Ucircumflex
ENCODING 219
SWIDTH 664 0
DWIDTH 12 0
BBX 12 17 1 0
BITMAP
0300
0300
0480
0880
F8F0
2020
2040
6040
6040
6040
6040
C080
C080
C080
C080
E300
3E00
ENDCHAR

STARTCHAR Udieresis
ENCODING 220
SWIDTH 664 0
DWIDTH 12 0
BBX 12 17 1 0
BITMAP
0D80
0D80
0000
0000
F8F0
2020
2040
6040
6040
6040
6040
C080
C080
C080
C080
E300
3E00
ENDCHAR

STARTCHAR Yacute
ENCODING 221
SWIDTH 563 0
DWIDTH 11 0
BBX 11 17 1 0
BITMAP
0180
0300
0200
0400
F1E0
6080
2080
3100
3200
1400
1C00
1800
1800
1800
1000
1000
7C00
ENDCHAR

STARTCHAR Thorn
ENCODING 222
SWIDTH 532 0
DWIDTH 9 0
BBX 10 13 -1 0
BITMAP
3C00
1800
1F00
1180
10C0
10C0
30C0
30C0
3180
2300
3E00
6000
F000
ENDCHAR

STARTCHAR germandbls
ENCODING 223
SWIDTH 574 0
DWIDTH 11 0
BBX 13 18 -3 -4
BITMAP
00E0
0318
0218
0618
0410
0470
0480
0C80
0CC0
0870
0838
0B10
0B30
19C0
1000
1000
A000
C000
ENDCHAR

STARTCHAR agrave
ENCODING 224
SWIDTH 525 0
DWIDTH 10 0
BBX 9 14 0 0
BITMAP
1800
0800
0C00
0400
0000
0000
0F80
3180
6100
C100
C300
C300
E600
7B80
ENDCHAR

STARTCHAR aacute
ENCODING 225
SWIDTH 525 0
DWIDTH 10 0
BBX 9 14 0 0
BITMAP
0180
0300
0200
0400
0000
0000
0F80
3180
6100
C100
C300
C300
E600
7B80
ENDCHAR

STARTCHAR acircumflex
ENCODING 226
SWIDTH 525 0
DWIDTH 10 0
BBX 9 14 0 0
BITMAP
0600
0600
0900
1100
0000
0000
0F80
3180
6100
C100
C300
C300
E600
7B80
ENDCHAR

STARTCHAR atilde
ENCODING 227
SWIDTH 525 0
DWIDTH 10 0
BBX 9 14 0 0
BITMAP
0C80
1F80
1300
0000
0000
0000
0F80
3180
6100
C100
C300
C300
E600
7B80
ENDCHAR

STARTCHAR adieresis
ENCODING 228
SWIDTH 525 0
DWIDTH 10 0
BBX 9 14 0 0
BITMAP
1B00
1B00
0000
0000
0000
0000
0F80
3180
6100
C100
C300
C300
E600
7B80
ENDCHAR

STARTCHAR aring
ENCODING 229
SWIDTH 525 0
DWIDTH 10 0
BBX 9 15 0 0
BITMAP
0600
0900
0900
0900
0600
0000
0000
0F80
3180
6100
C100
C300
C300
E600
7B80
ENDCHAR

STARTCHAR ae
ENCODING 230
SWIDTH 671 0
DWIDTH 13 0
BBX 12 8 0 0
BITMAP
1CE0
2330
6230
0660
1F80
6400
C630
7BC0
ENDCHAR

STARTCHAR ccedilla
ENCODING 231
SWIDTH 394 0
DWIDTH 7 0
BBX 6 12 0 -4
BITMAP
1C
2C
40
C0
C0
C0
CC
30
20
30
10
E0
ENDCHAR

STARTCHAR egrave
ENCODING 232
SWIDTH 424 0
DWIDTH 8 0
BBX 7 14 0 0
BITMAP
18
08
0C
04
00
00
1C
26
66
48
F0
C0
C6
38
ENDCHAR

STARTCHAR eacute
ENCODING 233
SWIDTH 424 0
DWIDTH 8 0
BBX 9 14 0 0
BITMAP
0180
0300
0200
0400
0000
0000
1C00
2600
6600
4800
F000
C000
C600
3800
ENDCHAR

STARTCHAR ecircumflex
ENCODING 234
SWIDTH 424 0
DWIDTH 8 0
BBX 8 14 0 0
BITMAP
06
06
09
11
00
00
1C
26
66
48
F0
C0
C6
38
ENDCHAR

STARTCHAR edieresis
ENCODING 235
SWIDTH 424 0
DWIDTH 8 0
BBX 8 14 0 0
BITMAP
1B
1B
00
00
00
00
1C
26
66
48
F0
C0
C6
38
ENDCHAR

STARTCHAR igrave
ENCODING 236
SWIDTH 287 0
DWIDTH 5 0
BBX 4 14 1 0
BITMAP
C0
40
60
20
00
00
E0
60
40
40
C0
C0
C0
F0
ENDCHAR

STARTCHAR iacute
ENCODING 237
SWIDTH 287 0
DWIDTH 5 0
BBX 6 14 1 0
BITMAP
0C
18
10
20
00
00
E0
60
40
40
C0
C0
C0
F0
ENDCHAR

STARTCHAR icircumflex
ENCODING 238
SWIDTH 287 0
DWIDTH 5 0
BBX 5 14 1 0
BITMAP
30
30
48
88
00
00
E0
60
40
40
C0
C0
C0
F0
ENDCHAR

STARTCHAR idieresis
ENCODING 239
SWIDTH 287 0
DWIDTH 5 0
BBX 5 14 1 0
BITMAP
D8
D8
00
00
00
00
E0
60
40
40
C0
C0
C0
F0
ENDCHAR

STARTCHAR eth
ENCODING 240
SWIDTH 500 0
DWIDTH 9 0
BBX 8 14 0 0
BITMAP
18
09
0E
1C
26
06
1E
23
63
C3
C3
C6
64
38
ENDCHAR

STARTCHAR ntilde
ENCODING 241
SWIDTH 556 0
DWIDTH 10 0
BBX 9 14 1 0
BITMAP
1900
3F00
2600
0000
0000
0000
EF00
7300
6300
4300
4200
4200
C600
C780
ENDCHAR

STARTCHAR ograve
ENCODING 242
SWIDTH 502 0
DWIDTH 9 0
BBX 8 14 0 0
BITMAP
18
08
0C
04
00
00
1C
26
63
C3
C3
C6
44
38
ENDCHAR

STARTCHAR oacute
ENCODING 243
SWIDTH 502 0
DWIDTH 9 0
BBX 9 14 0 0
BITMAP
0180
0300
0200
0400
0000
0000
1C00
2600
6300
C300
C300
C600
4400
3800
ENDCHAR

STARTCHAR ocircumflex
ENCODING 244
SWIDTH 502 0
DWIDTH 9 0
BBX 8 14 0 0
BITMAP
06
06
09
11
00
00
1C
26
63
C3
C3
C6
44
38
ENDCHAR

STARTCHAR otilde
ENCODING 245
SWIDTH 502 0
DWIDTH 9 0
BBX 9 14 0 0
BITMAP
0C80
1F80
1300
0000
0000
0000
1C00
2600
6300
C300
C300
C600
4400
3800
ENDCHAR

STARTCHAR odieresis
ENCODING 246
SWIDTH 502 0
DWIDTH 9 0
BBX 8 14 0 0
BITMAP
1B
1B
00
00
00
00
1C
26
63
C3
C3
C6
44
38
ENDCHAR

STARTCHAR divide
ENCODING 247
SWIDTH 833 0
DWIDTH 16 0
BBX 12 9 2 2
BITMAP
0600
0600
0000
0000
FFF0
0000
0000
0600
0600
ENDCHAR

STARTCHAR oslash
ENCODING 248
SWIDTH 502 0
DWIDTH 9 0
BBX 8 11 0 -1
BITMAP
01
02
1E
26
67
CB
D3
D6
64
78
C0
ENDCHAR

STARTCHAR ugrave
ENCODING 249
SWIDTH 553 0
DWIDTH 10 0
BBX 8 14 1 0
BITMAP
30
10
18
08
00
00
E3
63
42
42
C6
C6
CE
F7
ENDCHAR

STARTCHAR uacute
ENCODING 250
SWIDTH 553 0
DWIDTH 10 0
BBX 8 14 1 0
BITMAP
03
06
04
08
00
00
E3
63
42
42
C6
C6
CE
F7
ENDCHAR

STARTCHAR ucircumflex
ENCODING 251
SWIDTH 553 0
DWIDTH 10 0
BBX 8 14 1 0
BITMAP
0C
0C
12
22
00
00
E3
63
42
42
C6
C6
CE
F7
ENDCHAR

STARTCHAR udieresis
ENCODING 252
SWIDTH 553 0
DWIDTH 10 0
BBX 8 14 1 0
BITMAP
36
36
00
00
00
00
E3
63
42
42
C6
C6
CE
F7
ENDCHAR

STARTCHAR yacute
ENCODING 253
SWIDTH 475 0
DWIDTH 9 0
BBX 11 18 -2 -4
BITMAP
0060
00C0
0080
0100
0000
0000
3860
0840
0880
0C80
0D00
0500
0600
0600
0400
0800
D000
E000
ENDCHAR

STARTCHAR thorn
ENCODING 254
SWIDTH 516 0
DWIDTH 10 0
BBX 10 18 -1 -4
BITMAP
3800
0800
1800
1800
1800
1000
1780
19C0
30C0
30C0
20C0
2180
2300
3C00
6000
6000
4000
F000
ENDCHAR

STARTCHAR ydieresis
ENCODING 255
SWIDTH 475 0
DWIDTH 9 0
BBX 11 18 -2 -4
BITMAP
06C0
06C0
0000
0000
0000
0000
3860
0840
0880
0C80
0D00
0500
0600
0600
0400
0800
D000
E000
ENDCHAR
ENDFONT
